<?xml version="1.0" encoding="UTF-8" standalone="yes"?>
<svg version="1.2" baseProfile="tiny-ps" viewBox="0 0 300 300" xmlns="http://www.w3.org/2000/svg">
  <title>bimi-svg-tiny-12-ps</title>
  <g>
    <g fill="#fff" transform="matrix(.1 0 0 -.1 0 300)">
      <path d="M0 1500V0h3000v3000H0V1500z"/>
    </g>
    <g fill="#d7f0ff" transform="matrix(.1 0 0 -.1 0 300)">
      <path d="M0 1500V0h3000v3000H0V1500zm785 720c127-11 273-25 325-31l95-11 60-20c68-22 111-46 173-96l43-34 37 29c55 44 121 80 186 103l58 19 146 15c143 15 492 46 514 46h11l-6-197-6-198-16-63c-33-138-98-255-199-361l-61-64-71-47-72-47-81-33-81-32V870h-210v511l13 3c6 2 50 11 97 20l85 15 70 35 70 35 56 50 57 51 36 55c20 30 48 85 62 122l26 68 5 87 6 88-44-5c-24-3-93-9-154-15-60-6-136-13-167-16l-57-6-58-27-58-28-41-41c-22-23-63-77-89-122-27-44-51-80-54-80-4 0-39 46-79 101l-73 100-47 34c-26 19-68 42-93 50l-47 16-193 18-194 19-8-8-8-7 10-84 10-84 22-60c74-201 240-332 465-368l74-12V870h-220v338l-52 17c-248 80-452 318-503 588l-15 79v348h8c4 0 111-9 237-20z"/>
    </g>
    <g fill="#a7dfff" transform="matrix(.1 0 0 -.1 0 300)">
      <path d="M0 1500V0h3000v3000H0V1500zm883 715 282-26 57-14c71-18 147-55 215-106l51-38 12 14c7 8 39 33 72 55l60 40 82 25 81 25 285 25c157 14 300 25 319 25h33l-5-207-4-208-22-75c-12-41-40-109-62-152l-41-77-57-68-57-68-79-57-80-58-75-30c-41-17-82-34-90-39l-15-8-3-162-2-161h-220v508l18 7c9 3 53 13 97 20l80 14 80 40 81 40 51 49c29 28 70 78 93 113l40 63 20 65 21 65 6 73 6 73h-26c-14 0-103-7-197-16l-171-15-42-15c-104-37-149-77-230-207l-56-89-77 105-78 104-50 37-49 36-51 15-51 15-165 15c-91 8-175 15-187 15h-23v-116l15-59c9-33 30-89 47-125l31-64 72-72 72-72 74-35 74-36 93-17 92-17V870h-220v330l-22 9c-78 30-120 49-173 80l-60 34-91 91-91 92-47 94-46 95-20 79-20 79v387h30c17 0 158-11 313-25z"/>
    </g>
    <g fill="#68c9ff" transform="matrix(.1 0 0 -.1 0 300)">
      <path d="M0 1500V0h3000v3000H0V1500zm907 714 282-25 53-15c70-21 121-48 185-95 29-22 54-39 56-39s22 14 43 31c50 40 134 82 204 103l55 17 275 24c151 13 296 27 323 30l47 6v-377l-11-60c-34-184-150-368-305-484-54-41-166-100-226-119l-38-12-2-167-3-167-112-3-113-3v521l23 9c12 5 59 15 104 24l81 15 68 32 67 32 71 72 72 71 32 61c17 33 38 87 47 119l15 59v127l-67-7c-38-3-130-12-205-20l-138-13-54-26-54-26-40-38-40-39-53-86c-28-47-55-86-58-86s-37 43-75 95c-80 111-120 149-193 182l-53 24-132 14c-73 7-166 16-205 20l-73 6v-43c0-24 7-74 15-113l15-70 34-70 35-70 54-56c109-111 219-161 415-189 1 0 2-119 2-265V860h-220v159c0 88-3 166-6 175l-6 16h-16c-9 0-57 20-107 44l-90 45-62 51c-154 125-257 311-283 510-10 84-14 373-4 383 4 3 25 4 48 1 22-2 168-16 323-30z"/>
    </g>
    <g fill="#38b7ff" transform="matrix(.1 0 0 -.1 0 300)">
      <path d="M0 1500V0h3000v3000H0V1500zm848 725c333-30 340-31 421-57l64-21 78-53 77-52 16 16c25 29 123 83 194 109l67 25 310 29c171 16 323 29 339 29h29l-6-202-5-203-21-79c-27-103-77-205-141-289l-51-67-67-56-67-55-90-44c-49-23-102-48-117-54l-28-11V860h-230v529l18 5c9 3 48 10 86 16 126 20 236 78 328 173l46 48 36 68 36 68 15 64c8 35 15 87 15 114v51l-192-17-193-17-56-21-57-22-45-39-45-40-48-77c-26-43-53-86-60-96l-12-19-77 104c-91 122-110 140-191 179l-61 30-159 14c-88 8-178 15-201 15h-43l6-62c3-35 14-92 24-128l19-65 38-64 38-63 57-54 58-53 73-36 72-36 85-15c47-9 91-18 98-20l12-4-2-262-3-263-117-3-118-3v338l-70 27c-90 36-179 93-258 170l-65 61-48 72-47 73-25 67c-14 38-31 86-38 108l-11 40-5 218-5 217h22c12 0 146-11 298-25z"/>
    </g>
  </g>
</svg>